  0
SECTION
  2
HEADER
  9
$ACADVER
  1
AC1009
  0
ENDSEC
  0
SECTION
  2
TABLES
  0
TABLE
  2
LAYER
 70
1
  0
LAYER
  2
0
 70
0
 62
7
  6
CONTINUOUS
  0
ENDTAB
  0
ENDTAB
  0
ENDSEC
  0
SECTION
  2
BLOCKS
  0
ENDBLK
  0
ENDBLK
  0
ENDSEC
  0
SECTION
  2
ENTITIES
  0
CIRCLE
  8
0
 10
0.0
 20
0.0
 40
100.0
  0
CIRCLE
  8
0
 10
0.0
 20
0.0
 40
80.0
  0
CIRCLE
  8
0
 10
0.0
 20
0.0
 40
55.0
  0
CIRCLE
  8
0
 10
0.0
 20
0.0
 40
25.0
  0
TEXT
  8
0
 10
51.000000000000014
 20
88.33459118601273
 40
3.0
  1
200mm
  0
TEXT
  8
0
 10
41.00000000000001
 20
71.01408311032397
 40
3.0
  1
160mm
  0
TEXT
  8
0
 10
28.500000000000007
 20
49.363448015713
 40
3.0
  1
110mm
  0
TEXT
  8
0
 10
13.500000000000004
 20
23.38268590217984
 40
3.0
  1
50mm
  0
CIRCLE
  8
0
 10
70.71067811865476
 20
70.71067811865476
 40
2.0
  0
CIRCLE
  8
0
 10
-70.71067811865474
 20
70.71067811865476
 40
2.0
  0
CIRCLE
  8
0
 10
-70.71067811865477
 20
-70.71067811865474
 40
2.0
  0
CIRCLE
  8
0
 10
70.71067811865474
 20
-70.71067811865477
 40
2.0
  0
CIRCLE
  8
0
 10
35.35533905932738
 20
35.35533905932738
 40
2.0
  0
CIRCLE
  8
0
 10
-35.35533905932737
 20
35.35533905932738
 40
2.0
  0
CIRCLE
  8
0
 10
-35.355339059327385
 20
-35.35533905932737
 40
2.0
  0
CIRCLE
  8
0
 10
35.35533905932737
 20
-35.355339059327385
 40
2.0
  0
CIRCLE
  8
0
 10
0.0
 20
0.0
 40
2.0
  0
TEXT
  8
0
 10
-150.0
 20
-150.0
 40
0.1
  1
ID:mulde35x35
  0
LINE
  8
0
 10
-7.5
 20
67.5
 11
7.5
 21
67.5
  0
LINE
  8
0
 10
17.5
 20
57.5
 11
17.5
 21
42.5
  0
LINE
  8
0
 10
7.5
 20
32.5
 11
-7.5
 21
32.5
  0
LINE
  8
0
 10
-17.5
 20
42.5
 11
-17.5
 21
57.5
  0
ARC
  8
0
 10
7.5
 20
57.5
 40
10.0
 50
0.0
 51
90.0
  0
ARC
  8
0
 10
7.5
 20
42.5
 40
10.0
 50
270.0
 51
360.0
  0
ARC
  8
0
 10
-7.5
 20
42.5
 40
10.0
 50
180.0
 51
270.0
  0
ARC
  8
0
 10
-7.5
 20
57.5
 40
10.0
 50
90.0
 51
180.0
  0
LINE
  8
0
 10
42.5
 20
17.5
 11
57.5
 21
17.5
  0
LINE
  8
0
 10
67.5
 20
7.5
 11
67.5
 21
-7.5
  0
LINE
  8
0
 10
57.5
 20
-17.5
 11
42.5
 21
-17.5
  0
LINE
  8
0
 10
32.5
 20
-7.5
 11
32.5
 21
7.5
  0
ARC
  8
0
 10
57.5
 20
7.5
 40
10.0
 50
0.0
 51
90.0
  0
ARC
  8
0
 10
57.5
 20
-7.5
 40
10.0
 50
270.0
 51
360.0
  0
ARC
  8
0
 10
42.5
 20
-7.5
 40
10.0
 50
180.0
 51
270.0
  0
ARC
  8
0
 10
42.5
 20
7.5
 40
10.0
 50
90.0
 51
180.0
  0
LINE
  8
0
 10
-7.5
 20
-32.5
 11
7.5
 21
-32.5
  0
LINE
  8
0
 10
17.5
 20
-42.5
 11
17.5
 21
-57.5
  0
LINE
  8
0
 10
7.5
 20
-67.5
 11
-7.5
 21
-67.5
  0
LINE
  8
0
 10
-17.5
 20
-57.5
 11
-17.5
 21
-42.5
  0
ARC
  8
0
 10
7.5
 20
-42.5
 40
10.0
 50
0.0
 51
90.0
  0
ARC
  8
0
 10
7.5
 20
-57.5
 40
10.0
 50
270.0
 51
360.0
  0
ARC
  8
0
 10
-7.5
 20
-57.5
 40
10.0
 50
180.0
 51
270.0
  0
ARC
  8
0
 10
-7.5
 20
-42.5
 40
10.0
 50
90.0
 51
180.0
  0
LINE
  8
0
 10
-57.5
 20
17.5
 11
-42.5
 21
17.5
  0
LINE
  8
0
 10
-32.5
 20
7.5
 11
-32.5
 21
-7.5
  0
LINE
  8
0
 10
-42.5
 20
-17.5
 11
-57.5
 21
-17.5
  0
LINE
  8
0
 10
-67.5
 20
-7.5
 11
-67.5
 21
7.5
  0
ARC
  8
0
 10
-42.5
 20
7.5
 40
10.0
 50
0.0
 51
90.0
  0
ARC
  8
0
 10
-42.5
 20
-7.5
 40
10.0
 50
270.0
 51
360.0
  0
ARC
  8
0
 10
-57.5
 20
-7.5
 40
10.0
 50
180.0
 51
270.0
  0
ARC
  8
0
 10
-57.5
 20
7.5
 40
10.0
 50
90.0
 51
180.0
  0
LINE
  8
0
 10
-9.5
 20
63.5
 11
9.5
 21
63.5
  0
LINE
  8
0
 10
13.5
 20
59.5
 11
13.5
 21
40.5
  0
LINE
  8
0
 10
9.5
 20
36.5
 11
-9.5
 21
36.5
  0
LINE
  8
0
 10
-13.5
 20
40.5
 11
-13.5
 21
59.5
  0
ARC
  8
0
 10
9.5
 20
59.5
 40
4.0
 50
0.0
 51
90.0
  0
ARC
  8
0
 10
9.5
 20
40.5
 40
4.0
 50
270.0
 51
360.0
  0
ARC
  8
0
 10
-9.5
 20
40.5
 40
4.0
 50
180.0
 51
270.0
  0
ARC
  8
0
 10
-9.5
 20
59.5
 40
4.0
 50
90.0
 51
180.0
  0
LINE
  8
0
 10
40.5
 20
13.5
 11
59.5
 21
13.5
  0
LINE
  8
0
 10
63.5
 20
9.5
 11
63.5
 21
-9.5
  0
LINE
  8
0
 10
59.5
 20
-13.5
 11
40.5
 21
-13.5
  0
LINE
  8
0
 10
36.5
 20
-9.5
 11
36.5
 21
9.5
  0
ARC
  8
0
 10
59.5
 20
9.5
 40
4.0
 50
0.0
 51
90.0
  0
ARC
  8
0
 10
59.5
 20
-9.5
 40
4.0
 50
270.0
 51
360.0
  0
ARC
  8
0
 10
40.5
 20
-9.5
 40
4.0
 50
180.0
 51
270.0
  0
ARC
  8
0
 10
40.5
 20
9.5
 40
4.0
 50
90.0
 51
180.0
  0
LINE
  8
0
 10
-9.5
 20
-36.5
 11
9.5
 21
-36.5
  0
LINE
  8
0
 10
13.5
 20
-40.5
 11
13.5
 21
-59.5
  0
LINE
  8
0
 10
9.5
 20
-63.5
 11
-9.5
 21
-63.5
  0
LINE
  8
0
 10
-13.5
 20
-59.5
 11
-13.5
 21
-40.5
  0
ARC
  8
0
 10
9.5
 20
-40.5
 40
4.0
 50
0.0
 51
90.0
  0
ARC
  8
0
 10
9.5
 20
-59.5
 40
4.0
 50
270.0
 51
360.0
  0
ARC
  8
0
 10
-9.5
 20
-59.5
 40
4.0
 50
180.0
 51
270.0
  0
ARC
  8
0
 10
-9.5
 20
-40.5
 40
4.0
 50
90.0
 51
180.0
  0
LINE
  8
0
 10
-59.5
 20
13.5
 11
-40.5
 21
13.5
  0
LINE
  8
0
 10
-36.5
 20
9.5
 11
-36.5
 21
-9.5
  0
LINE
  8
0
 10
-40.5
 20
-13.5
 11
-59.5
 21
-13.5
  0
LINE
  8
0
 10
-63.5
 20
-9.5
 11
-63.5
 21
9.5
  0
ARC
  8
0
 10
-40.5
 20
9.5
 40
4.0
 50
0.0
 51
90.0
  0
ARC
  8
0
 10
-40.5
 20
-9.5
 40
4.0
 50
270.0
 51
360.0
  0
ARC
  8
0
 10
-59.5
 20
-9.5
 40
4.0
 50
180.0
 51
270.0
  0
ARC
  8
0
 10
-59.5
 20
9.5
 40
4.0
 50
90.0
 51
180.0
  0
TEXT
  8
0
 10
77.78174593052023
 20
77.78174593052023
 40
5.0
  1
Messplatte IR160-P
  0
ENDSEC
  0
EOF
