  0
SECTION
  2
HEADER
  9
$ACADVER
  1
AC1009
  0
ENDSEC
  0
SECTION
  2
TABLES
  0
TABLE
  2
LAYER
 70
1
  0
LAYER
  2
0
 70
0
 62
7
  6
CONTINUOUS
  0
ENDTAB
  0
ENDTAB
  0
ENDSEC
  0
SECTION
  2
BLOCKS
  0
ENDBLK
  0
ENDBLK
  0
ENDSEC
  0
SECTION
  2
ENTITIES
  0
CIRCLE
  8
0
 10
0.0
 20
0.0
 40
80.0
  0
CIRCLE
  8
0
 10
0.0
 20
0.0
 40
55.0
  0
CIRCLE
  8
0
 10
0.0
 20
0.0
 40
25.0
  0
LINE
  8
0
 10
-7.5
 20
67.5
 11
7.5
 21
67.5
  0
LINE
  8
0
 10
17.5
 20
57.5
 11
17.5
 21
42.5
  0
LINE
  8
0
 10
7.5
 20
32.5
 11
-7.5
 21
32.5
  0
LINE
  8
0
 10
-17.5
 20
42.5
 11
-17.5
 21
57.5
  0
ARC
  8
0
 10
7.5
 20
57.5
 40
10.0
 50
0.0
 51
90.0
  0
ARC
  8
0
 10
7.5
 20
42.5
 40
10.0
 50
270.0
 51
360.0
  0
ARC
  8
0
 10
-7.5
 20
42.5
 40
10.0
 50
180.0
 51
270.0
  0
ARC
  8
0
 10
-7.5
 20
57.5
 40
10.0
 50
90.0
 51
180.0
  0
LINE
  8
0
 10
42.5
 20
17.5
 11
57.5
 21
17.5
  0
LINE
  8
0
 10
67.5
 20
7.5
 11
67.5
 21
-7.5
  0
LINE
  8
0
 10
57.5
 20
-17.5
 11
42.5
 21
-17.5
  0
LINE
  8
0
 10
32.5
 20
-7.5
 11
32.5
 21
7.5
  0
ARC
  8
0
 10
57.5
 20
7.5
 40
10.0
 50
0.0
 51
90.0
  0
ARC
  8
0
 10
57.5
 20
-7.5
 40
10.0
 50
270.0
 51
360.0
  0
ARC
  8
0
 10
42.5
 20
-7.5
 40
10.0
 50
180.0
 51
270.0
  0
ARC
  8
0
 10
42.5
 20
7.5
 40
10.0
 50
90.0
 51
180.0
  0
LINE
  8
0
 10
-7.5
 20
-32.5
 11
7.5
 21
-32.5
  0
LINE
  8
0
 10
17.5
 20
-42.5
 11
17.5
 21
-57.5
  0
LINE
  8
0
 10
7.5
 20
-67.5
 11
-7.5
 21
-67.5
  0
LINE
  8
0
 10
-17.5
 20
-57.5
 11
-17.5
 21
-42.5
  0
ARC
  8
0
 10
7.5
 20
-42.5
 40
10.0
 50
0.0
 51
90.0
  0
ARC
  8
0
 10
7.5
 20
-57.5
 40
10.0
 50
270.0
 51
360.0
  0
ARC
  8
0
 10
-7.5
 20
-57.5
 40
10.0
 50
180.0
 51
270.0
  0
ARC
  8
0
 10
-7.5
 20
-42.5
 40
10.0
 50
90.0
 51
180.0
  0
LINE
  8
0
 10
-57.5
 20
17.5
 11
-42.5
 21
17.5
  0
LINE
  8
0
 10
-32.5
 20
7.5
 11
-32.5
 21
-7.5
  0
LINE
  8
0
 10
-42.5
 20
-17.5
 11
-57.5
 21
-17.5
  0
LINE
  8
0
 10
-67.5
 20
-7.5
 11
-67.5
 21
7.5
  0
ARC
  8
0
 10
-42.5
 20
7.5
 40
10.0
 50
0.0
 51
90.0
  0
ARC
  8
0
 10
-42.5
 20
-7.5
 40
10.0
 50
270.0
 51
360.0
  0
ARC
  8
0
 10
-57.5
 20
-7.5
 40
10.0
 50
180.0
 51
270.0
  0
ARC
  8
0
 10
-57.5
 20
7.5
 40
10.0
 50
90.0
 51
180.0
  0
LINE
  8
0
 10
-9.0
 20
64.0
 11
9.0
 21
64.0
  0
LINE
  8
0
 10
14.0
 20
59.0
 11
14.0
 21
41.0
  0
LINE
  8
0
 10
9.0
 20
36.0
 11
-9.0
 21
36.0
  0
LINE
  8
0
 10
-14.0
 20
41.0
 11
-14.0
 21
59.0
  0
ARC
  8
0
 10
9.0
 20
59.0
 40
5.0
 50
0.0
 51
90.0
  0
ARC
  8
0
 10
9.0
 20
41.0
 40
5.0
 50
270.0
 51
360.0
  0
ARC
  8
0
 10
-9.0
 20
41.0
 40
5.0
 50
180.0
 51
270.0
  0
ARC
  8
0
 10
-9.0
 20
59.0
 40
5.0
 50
90.0
 51
180.0
  0
LINE
  8
0
 10
41.0
 20
14.0
 11
59.0
 21
14.0
  0
LINE
  8
0
 10
64.0
 20
9.0
 11
64.0
 21
-9.0
  0
LINE
  8
0
 10
59.0
 20
-14.0
 11
41.0
 21
-14.0
  0
LINE
  8
0
 10
36.0
 20
-9.0
 11
36.0
 21
9.0
  0
ARC
  8
0
 10
59.0
 20
9.0
 40
5.0
 50
0.0
 51
90.0
  0
ARC
  8
0
 10
59.0
 20
-9.0
 40
5.0
 50
270.0
 51
360.0
  0
ARC
  8
0
 10
41.0
 20
-9.0
 40
5.0
 50
180.0
 51
270.0
  0
ARC
  8
0
 10
41.0
 20
9.0
 40
5.0
 50
90.0
 51
180.0
  0
LINE
  8
0
 10
-9.0
 20
-36.0
 11
9.0
 21
-36.0
  0
LINE
  8
0
 10
14.0
 20
-41.0
 11
14.0
 21
-59.0
  0
LINE
  8
0
 10
9.0
 20
-64.0
 11
-9.0
 21
-64.0
  0
LINE
  8
0
 10
-14.0
 20
-59.0
 11
-14.0
 21
-41.0
  0
ARC
  8
0
 10
9.0
 20
-41.0
 40
5.0
 50
0.0
 51
90.0
  0
ARC
  8
0
 10
9.0
 20
-59.0
 40
5.0
 50
270.0
 51
360.0
  0
ARC
  8
0
 10
-9.0
 20
-59.0
 40
5.0
 50
180.0
 51
270.0
  0
ARC
  8
0
 10
-9.0
 20
-41.0
 40
5.0
 50
90.0
 51
180.0
  0
LINE
  8
0
 10
-59.0
 20
14.0
 11
-41.0
 21
14.0
  0
LINE
  8
0
 10
-36.0
 20
9.0
 11
-36.0
 21
-9.0
  0
LINE
  8
0
 10
-41.0
 20
-14.0
 11
-59.0
 21
-14.0
  0
LINE
  8
0
 10
-64.0
 20
-9.0
 11
-64.0
 21
9.0
  0
ARC
  8
0
 10
-41.0
 20
9.0
 40
5.0
 50
0.0
 51
90.0
  0
ARC
  8
0
 10
-41.0
 20
-9.0
 40
5.0
 50
270.0
 51
360.0
  0
ARC
  8
0
 10
-59.0
 20
-9.0
 40
5.0
 50
180.0
 51
270.0
  0
ARC
  8
0
 10
-59.0
 20
9.0
 40
5.0
 50
90.0
 51
180.0
  0
ENDSEC
  0
EOF
